HIERARCHY
ROOT Hips
{
  OFFSET 3.13124 94.3669 -3.18751
  CHANNELS  6 Xposition Yposition Zposition Zrotation Xrotation Yrotation
  JOINT LeftUpLeg
  {
    OFFSET 8.64259 1.95398 -2.38835
    CHANNELS 3 Zrotation Xrotation Yrotation
    JOINT LeftLeg
    {
      OFFSET 43.7702 0 0
      CHANNELS 3 Zrotation Xrotation Yrotation
      JOINT LeftFoot
      {
        OFFSET 40.6238 0 0
        CHANNELS 3 Zrotation Xrotation Yrotation
        JOINT LeftToeBase
        {
          OFFSET 12.7242 0 0
          CHANNELS 3 Zrotation Xrotation Yrotation
          End Site
          {
            OFFSET 0 0 0
          }
        }
      }
    }
  }
  JOINT RightUpLeg
  {
    OFFSET -8.2249 1.95398 -2.59336
    CHANNELS 3 Zrotation Xrotation Yrotation
    JOINT RightLeg
    {
      OFFSET 43.5653 0 0
      CHANNELS 3 Zrotation Xrotation Yrotation
      JOINT RightFoot
      {
        OFFSET 40.6238 0 0
        CHANNELS 3 Zrotation Xrotation Yrotation
        JOINT RightToeBase
        {
          OFFSET 12.7242 0 0
          CHANNELS 3 Zrotation Xrotation Yrotation
          End Site
          {
            OFFSET 0 0 0
          }
        }
      }
    }
  }
  JOINT Spine
  {
    OFFSET 0.165834 0.87714 6.61349
    CHANNELS 3 Zrotation Xrotation Yrotation
    JOINT Spine1
    {
      OFFSET 7.38962 1.71661e-005 0
      CHANNELS 3 Zrotation Xrotation Yrotation
      JOINT Spine2
      {
        OFFSET 11.9445 1.14441e-005 0
        CHANNELS 3 Zrotation Xrotation Yrotation
        JOINT Spine3
        {
          OFFSET 14.7254 4.19617e-005 0
          CHANNELS 3 Zrotation Xrotation Yrotation
          JOINT Spine4
          {
            OFFSET 10.9679 0 0
            CHANNELS 3 Zrotation Xrotation Yrotation
            JOINT RightShoulder
            {
              OFFSET 2.46616 -1.6653 3.69651
              CHANNELS 3 Zrotation Xrotation Yrotation
              JOINT RightArm
              {
                OFFSET 13.0012 0 0
                CHANNELS 3 Zrotation Xrotation Yrotation
                JOINT RightForeArm
                {
                  OFFSET 28.7848 1.52588e-005 0
                  CHANNELS 3 Zrotation Xrotation Yrotation
                  JOINT RightHand
                  {
                    OFFSET 26.5688 1.52588e-005 0
                    CHANNELS 3 Zrotation Xrotation Yrotation
                    End Site
                    {
                      OFFSET 0 0 0
                    }
                  }
                }
              }
            }
            JOINT LeftShoulder
            {
              OFFSET 2.38034 -1.29275 -3.75231
              CHANNELS 3 Zrotation Xrotation Yrotation
              JOINT LeftArm
              {
                OFFSET 16.3182 6.10352e-005 0
                CHANNELS 3 Zrotation Xrotation Yrotation
                JOINT LeftForeArm
                {
                  OFFSET 27.0901 0 0
                  CHANNELS 3 Zrotation Xrotation Yrotation
                  JOINT LeftHand
                  {
                    OFFSET 24.5451 1.52588e-005 0
                    CHANNELS 3 Zrotation Xrotation Yrotation
                    End Site
                    {
                      OFFSET 0 0 0
                    }
                  }
                }
              }
            }
            JOINT Neck
            {
              OFFSET 5.0226 -0.0266342 0
              CHANNELS 3 Zrotation Xrotation Yrotation
              JOINT Head
              {
                OFFSET 6.69363 2.86102e-005 0
                CHANNELS 3 Zrotation Xrotation Yrotation
                End Site
                {
                  OFFSET 0 0 0
                }
              }
            }
          }
        }
      }
    }
  }
}
MOTION
Frames:	14
Frame Time:	0.0333333
6.59433 95.7824 -7.6086 176.385 -89.998 176.389 179.462 1.89031 88.8696 -7.59212 -0.729226 -0.027864 62.7083 1.33707 0.67691 28.7808 4.18472e-006 -1.69883e-006 179.519 1.80864 89.1488 -7.41531 -0.379045 -0.0258516 62.6398 -1.14461 -0.579084 28.7808 1.45203e-005 2.65999e-005 0.000362899 6.3295 -90.0048 14.1935 0.0108503 6.34733e-006 2.52251 0.0117392 -7.64912e-006 -20.0126 -6.89232e-006 6.86399e-006 -1.59028e-015 0 7.76503e-019 101.128 -18.5873 -84.7352 -8.66407 28.0254 -2.85152 -7.36491 -28.0914 -11.1065 2.14075 0.140375 1.86719 -78.6527 -21.2226 95.0468 16.3829 -30.0787 -6.56765 5.76428 29.95 -9.47696 -2.0334 -0.0746629 1.61895 1.75012 0.00214519 0.00816361 -7.40815 0.00749036 -0.00586416 
6.5893 95.7554 -7.60178 -179.933 -89.9701 -179.875 179.555 3.16974 88.9707 -10.284 -0.539746 -0.0112038 63.7456 1.2184 0.632782 28.7808 4.18472e-006 -1.69883e-006 179.501 1.82976 89.1873 -7.53747 -0.537481 -0.0351367 62.7373 -1.00561 -0.496463 28.7808 1.45203e-005 2.65999e-005 0.00547298 6.32912 -90.0695 14.1935 0.0108503 6.34733e-006 2.52251 0.0117392 -7.64912e-006 -20.0126 -6.89232e-006 6.86399e-006 -4.4199e-037 9.31803e-018 2.71776e-018 101.147 -18.4872 -84.7536 -8.60678 28.2278 -2.15046 -8.10892 -28.398 -12.5555 2.76111 0.185581 2.12386 -78.6159 -21.3367 95.0854 16.4169 -30.0673 -6.78691 5.60011 29.9529 -9.15415 -2.034 -0.0746627 1.6249 1.69844 0.0333479 0.121372 -7.36433 0.00731644 -0.0836891 
6.58007 95.7627 -7.61631 -107.324 -89.9766 -107.228 179.576 3.27483 89.0081 -10.4413 -0.492857 -0.0077248 63.7769 1.17669 0.610498 28.7808 4.18472e-006 -1.69883e-006 179.514 1.59692 89.2306 -6.98582 -0.555625 -0.0357552 62.4587 -0.979203 -0.474961 28.7808 1.45203e-005 2.65999e-005 0.00698101 6.32889 -90.0876 14.1935 0.0108503 6.34733e-006 2.52251 0.0117392 -7.64912e-006 -20.0126 -6.89232e-006 6.86399e-006 -3.18055e-015 5.43552e-018 4.56195e-018 101.164 -18.6103 -84.7959 -8.65498 28.0775 -2.65111 -7.52606 -27.9821 -11.4749 2.33782 0.157825 2.08188 -78.5879 -21.2794 95.0642 16.3267 -30.1103 -6.49913 5.89853 29.9833 -9.7371 -2.08203 -0.0745137 1.89063 1.73018 0.0170841 -0.0140295 -7.32164 0.0034596 0.0659638 
6.5666 95.7808 -7.60947 137.258 -89.9332 137.267 179.513 2.16776 88.9494 -8.25281 -0.419049 -0.00389429 63.0029 1.28405 0.653453 28.7808 4.18472e-006 -1.69883e-006 179.51 1.70319 89.1459 -7.31871 -0.540815 -0.03417 62.6389 -0.955994 -0.468111 28.7808 1.45203e-005 2.65999e-005 0.00126849 6.32948 -90.0165 14.1935 0.0108503 6.34733e-006 2.52251 0.0117392 -7.64912e-006 -20.0126 -6.89232e-006 6.86399e-006 1.59028e-015 -1.2424e-017 1.55301e-018 101.156 -18.5943 -84.7305 -8.67519 28.0869 -2.56636 -7.57415 -28.031 -11.5613 2.31555 0.157158 2.11019 -78.647 -21.3275 94.9953 16.3051 -30.0664 -6.5708 5.82164 30.1304 -9.55625 -2.00943 -0.0713556 1.70875 1.6734 -0.0378142 0.0410449 -7.23261 -0.0157075 0.0293119 
6.5575 95.7722 -7.62194 129.461 -89.9229 129.483 179.529 2.39719 88.9541 -8.70545 -0.452482 2.37548e-005 63.1738 1.24717 0.636039 28.7808 4.18472e-006 -1.69883e-006 179.521 1.82974 89.1703 -7.56308 -0.475811 -0.0315381 62.7325 -0.993599 -0.491631 28.7808 1.45203e-005 2.65999e-005 0.00164107 6.32946 -90.0213 14.1935 0.0108503 6.34733e-006 2.52251 0.0117392 -7.64912e-006 -20.0126 -6.89232e-006 6.86399e-006 -3.03079e-036 3.72721e-017 4.65902e-018 101.166 -18.5557 -84.7426 -8.63815 28.0793 -2.47045 -7.60845 -27.9505 -11.6658 2.26484 0.157807 2.26188 -78.6408 -21.3492 94.9745 16.2895 -29.8816 -6.93995 5.26248 29.7306 -8.52331 -1.6021 -0.0549261 0.908439 1.69491 -0.0509666 0.0615879 -7.21564 -0.0220396 0.0138238 
6.55135 95.7928 -7.63389 123.706 -89.8887 123.723 179.518 2.02366 88.9732 -7.93574 -0.312631 0.0019855 62.8251 1.27326 0.644095 28.7808 4.18472e-006 -1.69883e-006 179.522 1.46145 89.1737 -6.81854 -0.420424 -0.0276849 62.3856 -1.01511 -0.4982 28.7808 1.45203e-005 2.65999e-005 0.0015858 6.32947 -90.0205 14.1935 0.0108503 6.34733e-006 2.52251 0.0117392 -7.64912e-006 -20.0126 -6.89232e-006 6.86399e-006 1.59028e-015 -4.96962e-017 -9.31803e-018 101.187 -18.5299 -84.6868 -8.60237 28.0988 -2.3747 -7.71126 -27.9776 -11.8714 2.35629 0.167348 2.40208 -78.6552 -21.3961 94.9529 16.2428 -29.8976 -6.91248 5.34343 29.7893 -8.67446 -1.62792 -0.0554836 1.04935 1.70974 -0.0332487 0.117174 -7.21258 -0.0183845 -0.0553909 
6.54305 95.7981 -7.64293 121.699 -89.8901 121.696 179.5 1.60093 88.9794 -7.03682 -0.218866 -0.000108433 62.4236 1.25827 0.625096 28.7808 4.18472e-006 -1.69883e-006 179.535 1.42985 89.178 -6.72271 -0.255847 -0.0183447 62.318 -1.11546 -0.556878 28.7808 1.45203e-005 2.65999e-005 0.000442262 6.3295 -90.0059 14.1935 0.0108503 6.34733e-006 2.52251 0.0117392 -7.64912e-006 -20.0126 -6.89232e-006 6.86399e-006 0 0 -9.31803e-018 101.2 -18.4381 -84.7223 -8.50328 28.1367 -2.09652 -7.97215 -28.0181 -12.3951 2.50399 0.184434 2.67344 -78.6253 -21.4596 94.9551 16.2302 -30.1835 -6.22637 6.27149 30.1641 -10.4307 -2.2471 -0.0834131 2.00779 1.69634 -0.0670051 0.18039 -7.22468 -0.0372436 -0.0843983 
6.53794 95.7816 -7.65313 134.153 -89.891 134.149 179.504 1.95065 88.9441 -7.79692 -0.429101 -0.0108077 62.776 1.31232 0.66368 28.7808 4.18472e-006 -1.69883e-006 179.523 1.81908 89.1579 -7.56207 -0.454286 -0.030224 62.7218 -1.0311 -0.514061 28.7808 1.45203e-005 2.65999e-005 0.000331638 6.3295 -90.0045 14.1935 0.0108503 6.34733e-006 2.52251 0.0117392 -7.64912e-006 -20.0126 -6.89232e-006 6.86399e-006 -1.59028e-015 2.48481e-017 3.10601e-018 101.194 -18.4246 -84.7739 -8.45951 28.1214 -2.0415 -7.98468 -27.9583 -12.4464 2.47634 0.186069 2.80229 -78.6131 -21.4887 94.9529 16.2214 -30.1205 -6.4005 6.056 30.0586 -10.0313 -2.14054 -0.0774432 1.92845 1.60085 -0.0774362 0.184416 -7.17198 -0.0489551 -0.0859203 
6.53145 95.7845 -7.6659 162.626 -89.8688 162.613 179.492 1.59116 88.9484 -7.15 -0.418804 -0.010902 62.4995 1.33809 0.671333 28.7808 4.18472e-006 -1.69883e-006 179.529 1.82666 89.1545 -7.65335 -0.459131 -0.0305702 62.755 -1.02599 -0.512233 28.7808 1.45203e-005 2.65999e-005 -0.000725061 6.32949 -89.9912 14.1934 0.0108503 -3.40174e-005 2.52247 0.0117392 -4.68872e-005 -20.0127 -6.89232e-006 -3.55862e-005 -3.24946e-005 -1.2424e-017 -4.24717e-005 101.172 -18.472 -84.8052 -8.46995 28.1365 -2.05683 -8.0051 -27.9979 -12.4743 2.60082 0.196132 2.85428 -78.5629 -21.5059 95.0978 16.1548 -30.2273 -6.27954 6.39024 30.2784 -10.6367 -2.31314 -0.0768722 2.0811 1.55481 -0.0203102 0.1817 -7.2096 -0.0186604 -0.0977824 
6.52475 95.7758 -7.67958 177.206 -89.8576 177.214 179.526 2.04302 88.9696 -8.10457 -0.439695 -0.0107817 62.9078 1.28499 0.649759 28.7808 4.18472e-006 -1.69883e-006 179.537 2.0643 89.1835 -8.14983 -0.469636 -0.0318658 62.9429 -1.06211 -0.536159 28.7808 1.45203e-005 2.65999e-005 -5.05195e-007 6.3295 -89.9994 14.1941 0.0108503 0.000809452 2.52316 0.0117392 0.00078904 -20.012 -6.89232e-006 0.000862581 0.000658084 6.21202e-018 0.000855508 101.158 -18.4703 -84.8743 -8.41141 28.178 -1.89367 -8.1875 -28.0019 -12.848 2.68402 0.208357 3.07668 -78.5614 -21.4753 95.067 16.1738 -30.1943 -6.2502 6.33683 30.2805 -10.5316 -2.28606 -0.0783086 1.99891 1.52802 -0.00552434 0.179385 -7.2756 0.00233548 -0.117577 
6.52166 95.7803 -7.69372 -167.27 -89.8214 -167.268 179.512 1.86476 88.9532 -7.79264 -0.495381 -0.0121283 62.7713 1.28485 0.646685 28.7808 4.18472e-006 -1.69883e-006 179.54 1.97117 89.1553 -8.00461 -0.453708 -0.0312536 62.8537 -1.0687 -0.537351 28.7808 1.45203e-005 2.65999e-005 0.000857766 6.32948 -89.9841 14.2114 0.0108503 0.0224615 2.54046 0.0117392 0.0220662 -19.9947 -6.89232e-006 0.0238701 0.0179644 3.10601e-018 0.023866 101.075 -18.6201 -84.8704 -8.4001 28.2162 -1.94941 -8.2531 -28.0761 -12.9528 2.74279 0.221241 3.37107 -78.6098 -21.3666 95.1469 16.1217 -30.1866 -6.35504 6.33747 30.4457 -10.4817 -2.20066 -0.0804625 1.9843 1.43794 0.00850777 0.0477499 -7.3598 0.0056538 -0.10137 
6.51594 95.6737 -7.70212 -165.235 -89.7481 -165.399 179.453 1.16333 88.778 -6.48729 -0.63267 -0.0142367 62.2829 1.49523 0.739486 28.7808 4.18472e-006 -1.69883e-006 179.513 5.38521 88.9862 -15.1095 -1.27461 -0.0993401 65.1061 -2.18881 -1.1992 28.7808 1.45203e-005 2.65999e-005 -0.0110986 6.32665 -89.8097 14.2052 0.0101525 0.0198662 2.5342 0.0109842 0.0193796 -20.0009 -6.89232e-006 0.0221081 0.0117049 -6.21202e-018 0.0221164 101.058 -18.5995 -84.9107 -8.38304 28.1672 -1.99247 -8.16035 -28.0723 -12.7654 2.67147 0.208336 3.10708 -78.6178 -21.359 95.1319 16.1014 -30.2042 -6.32621 6.35902 30.2562 -10.5804 -2.27418 -0.0820625 1.94589 1.33721 0.0254721 0.101615 -7.33248 0.0179332 -0.172534 
6.52452 95.6704 -7.69912 -165.904 -89.672 -166.058 179.456 1.13625 88.7658 -6.59605 -0.658492 -0.0167811 62.3343 1.49005 0.73679 28.7808 4.18472e-006 -1.69883e-006 179.522 5.54948 88.9749 -15.6055 -1.12915 -0.0940593 65.171 -2.384 -1.30683 28.7808 1.45203e-005 2.65999e-005 -0.014273 6.32672 -89.8121 14.1931 -0.000295216 -0.00056438 2.52218 -0.000319648 -0.000557363 -20.013 -6.89232e-006 -0.000623633 -0.00033798 -1.2424e-017 -0.000630873 101.036 -18.5418 -84.9801 -8.3688 28.1688 -2.04345 -8.16049 -28.1163 -12.7482 2.63988 0.21061 3.26981 -78.587 -21.4078 95.1938 16.0495 -30.17 -6.44058 6.26845 30.2293 -10.4104 -2.21062 -0.0818384 1.85807 1.30347 0.0267719 0.125784 -7.36369 0.0174932 -0.123106 
6.55059 95.7078 -7.6792 -171.499 -89.582 -171.637 179.438 0.976335 88.7592 -6.49773 -0.648336 -0.0194365 62.261 1.55989 0.778364 28.7808 4.18472e-006 -1.69883e-006 179.516 4.78911 88.9791 -14.2813 -1.0144 -0.0812361 64.9 -1.9717 -1.07701 28.7808 1.45203e-005 2.65999e-005 -0.0120867 6.32736 -89.8352 14.1935 4.23384e-006 -8.89755e-006 2.52251 1.97666e-007 -1.02272e-006 -20.0126 -6.89232e-006 -5.07941e-006 3.18055e-015 0 -3.48804e-007 100.964 -18.4852 -85.0184 -8.32286 28.1433 -2.02132 -8.14019 -28.0434 -12.7357 2.63348 0.21072 3.36006 -78.6416 -21.4568 95.1972 16.0706 -30.126 -6.70915 6.0202 30.1819 -9.93517 -2.12829 -0.0777497 1.62952 1.15908 0.0205953 0.170518 -7.34985 0.0230377 -0.189834 
